<mxfile host="app.diagrams.net" modified="2023-04-13T17:10:45.615Z" agent="Mozilla/5.0 (Windows NT 10.0; Win64; x64) AppleWebKit/537.36 (KHTML, like Gecko) Chrome/112.0.0.0 Safari/537.36" etag="Pee2t1cQEjUvn3t6UQHJ" version="21.1.7" type="device">
  <diagram name="Page-1" id="CXfxhv5soGUJSvLBNa6p">
    <mxGraphModel dx="1050" dy="541" grid="1" gridSize="10" guides="1" tooltips="1" connect="1" arrows="1" fold="1" page="1" pageScale="1" pageWidth="850" pageHeight="1100" math="0" shadow="0">
      <root>
        <mxCell id="0" />
        <mxCell id="1" parent="0" />
        <mxCell id="HcjrHbSl4ccHJXMgmdFX-7" value="" style="edgeStyle=orthogonalEdgeStyle;rounded=0;orthogonalLoop=1;jettySize=auto;html=1;" edge="1" parent="1" source="HcjrHbSl4ccHJXMgmdFX-1" target="HcjrHbSl4ccHJXMgmdFX-3">
          <mxGeometry relative="1" as="geometry" />
        </mxCell>
        <mxCell id="HcjrHbSl4ccHJXMgmdFX-1" value="S1/0" style="ellipse;whiteSpace=wrap;html=1;aspect=fixed;" vertex="1" parent="1">
          <mxGeometry x="280" y="180" width="60" height="60" as="geometry" />
        </mxCell>
        <mxCell id="HcjrHbSl4ccHJXMgmdFX-6" value="" style="edgeStyle=orthogonalEdgeStyle;rounded=0;orthogonalLoop=1;jettySize=auto;html=1;" edge="1" parent="1" source="HcjrHbSl4ccHJXMgmdFX-2" target="HcjrHbSl4ccHJXMgmdFX-1">
          <mxGeometry relative="1" as="geometry" />
        </mxCell>
        <mxCell id="HcjrHbSl4ccHJXMgmdFX-2" value="S0/0" style="ellipse;whiteSpace=wrap;html=1;aspect=fixed;" vertex="1" parent="1">
          <mxGeometry x="160" y="180" width="60" height="60" as="geometry" />
        </mxCell>
        <mxCell id="HcjrHbSl4ccHJXMgmdFX-8" value="" style="edgeStyle=orthogonalEdgeStyle;rounded=0;orthogonalLoop=1;jettySize=auto;html=1;" edge="1" parent="1" source="HcjrHbSl4ccHJXMgmdFX-3" target="HcjrHbSl4ccHJXMgmdFX-5">
          <mxGeometry relative="1" as="geometry" />
        </mxCell>
        <mxCell id="HcjrHbSl4ccHJXMgmdFX-3" value="S2/0" style="ellipse;whiteSpace=wrap;html=1;aspect=fixed;" vertex="1" parent="1">
          <mxGeometry x="400" y="180" width="60" height="60" as="geometry" />
        </mxCell>
        <mxCell id="HcjrHbSl4ccHJXMgmdFX-4" value="S4/1" style="ellipse;whiteSpace=wrap;html=1;aspect=fixed;" vertex="1" parent="1">
          <mxGeometry x="640" y="180" width="60" height="60" as="geometry" />
        </mxCell>
        <mxCell id="HcjrHbSl4ccHJXMgmdFX-9" value="" style="edgeStyle=orthogonalEdgeStyle;rounded=0;orthogonalLoop=1;jettySize=auto;html=1;" edge="1" parent="1" source="HcjrHbSl4ccHJXMgmdFX-5" target="HcjrHbSl4ccHJXMgmdFX-4">
          <mxGeometry relative="1" as="geometry" />
        </mxCell>
        <mxCell id="HcjrHbSl4ccHJXMgmdFX-5" value="S3/0" style="ellipse;whiteSpace=wrap;html=1;aspect=fixed;" vertex="1" parent="1">
          <mxGeometry x="520" y="180" width="60" height="60" as="geometry" />
        </mxCell>
        <mxCell id="HcjrHbSl4ccHJXMgmdFX-10" value="" style="endArrow=classic;html=1;rounded=0;exitX=0.5;exitY=1;exitDx=0;exitDy=0;entryX=0;entryY=0.5;entryDx=0;entryDy=0;" edge="1" parent="1" source="HcjrHbSl4ccHJXMgmdFX-4" target="HcjrHbSl4ccHJXMgmdFX-2">
          <mxGeometry width="50" height="50" relative="1" as="geometry">
            <mxPoint x="400" y="310" as="sourcePoint" />
            <mxPoint x="120" y="400" as="targetPoint" />
            <Array as="points">
              <mxPoint x="670" y="380" />
              <mxPoint x="240" y="380" />
              <mxPoint x="120" y="380" />
              <mxPoint x="120" y="210" />
            </Array>
          </mxGeometry>
        </mxCell>
        <mxCell id="HcjrHbSl4ccHJXMgmdFX-11" value="" style="endArrow=classic;html=1;rounded=0;exitX=0.5;exitY=1;exitDx=0;exitDy=0;" edge="1" parent="1" source="HcjrHbSl4ccHJXMgmdFX-2">
          <mxGeometry width="50" height="50" relative="1" as="geometry">
            <mxPoint x="400" y="310" as="sourcePoint" />
            <mxPoint x="120" y="260" as="targetPoint" />
            <Array as="points">
              <mxPoint x="190" y="260" />
            </Array>
          </mxGeometry>
        </mxCell>
        <mxCell id="HcjrHbSl4ccHJXMgmdFX-12" value="" style="endArrow=classic;html=1;rounded=0;exitX=0.5;exitY=1;exitDx=0;exitDy=0;" edge="1" parent="1" source="HcjrHbSl4ccHJXMgmdFX-1">
          <mxGeometry width="50" height="50" relative="1" as="geometry">
            <mxPoint x="400" y="310" as="sourcePoint" />
            <mxPoint x="120" y="290" as="targetPoint" />
            <Array as="points">
              <mxPoint x="310" y="290" />
            </Array>
          </mxGeometry>
        </mxCell>
        <mxCell id="HcjrHbSl4ccHJXMgmdFX-13" value="" style="endArrow=classic;html=1;rounded=0;exitX=0.5;exitY=1;exitDx=0;exitDy=0;" edge="1" parent="1" source="HcjrHbSl4ccHJXMgmdFX-3">
          <mxGeometry width="50" height="50" relative="1" as="geometry">
            <mxPoint x="400" y="310" as="sourcePoint" />
            <mxPoint x="120" y="320" as="targetPoint" />
            <Array as="points">
              <mxPoint x="430" y="320" />
            </Array>
          </mxGeometry>
        </mxCell>
        <mxCell id="HcjrHbSl4ccHJXMgmdFX-14" value="" style="endArrow=classic;html=1;rounded=0;exitX=0.5;exitY=1;exitDx=0;exitDy=0;" edge="1" parent="1" source="HcjrHbSl4ccHJXMgmdFX-5">
          <mxGeometry width="50" height="50" relative="1" as="geometry">
            <mxPoint x="400" y="310" as="sourcePoint" />
            <mxPoint x="120" y="350" as="targetPoint" />
            <Array as="points">
              <mxPoint x="550" y="350" />
            </Array>
          </mxGeometry>
        </mxCell>
        <mxCell id="HcjrHbSl4ccHJXMgmdFX-15" value="" style="endArrow=classic;html=1;rounded=0;exitX=1;exitY=0.5;exitDx=0;exitDy=0;entryX=0;entryY=0;entryDx=0;entryDy=0;" edge="1" parent="1" source="HcjrHbSl4ccHJXMgmdFX-4" target="HcjrHbSl4ccHJXMgmdFX-4">
          <mxGeometry width="50" height="50" relative="1" as="geometry">
            <mxPoint x="400" y="310" as="sourcePoint" />
            <mxPoint x="450" y="260" as="targetPoint" />
            <Array as="points">
              <mxPoint x="700" y="140" />
              <mxPoint x="649" y="140" />
            </Array>
          </mxGeometry>
        </mxCell>
        <mxCell id="HcjrHbSl4ccHJXMgmdFX-16" value="0" style="text;html=1;strokeColor=none;fillColor=none;align=center;verticalAlign=middle;whiteSpace=wrap;rounded=0;" vertex="1" parent="1">
          <mxGeometry x="220" y="190" width="50" height="20" as="geometry" />
        </mxCell>
        <mxCell id="HcjrHbSl4ccHJXMgmdFX-17" value="0" style="text;html=1;strokeColor=none;fillColor=none;align=center;verticalAlign=middle;whiteSpace=wrap;rounded=0;" vertex="1" parent="1">
          <mxGeometry x="340" y="190" width="50" height="20" as="geometry" />
        </mxCell>
        <mxCell id="HcjrHbSl4ccHJXMgmdFX-18" value="0" style="text;html=1;strokeColor=none;fillColor=none;align=center;verticalAlign=middle;whiteSpace=wrap;rounded=0;" vertex="1" parent="1">
          <mxGeometry x="460" y="190" width="50" height="20" as="geometry" />
        </mxCell>
        <mxCell id="HcjrHbSl4ccHJXMgmdFX-19" value="0" style="text;html=1;strokeColor=none;fillColor=none;align=center;verticalAlign=middle;whiteSpace=wrap;rounded=0;" vertex="1" parent="1">
          <mxGeometry x="580" y="190" width="50" height="20" as="geometry" />
        </mxCell>
        <mxCell id="HcjrHbSl4ccHJXMgmdFX-20" value="#0" style="text;html=1;strokeColor=none;fillColor=none;align=center;verticalAlign=middle;whiteSpace=wrap;rounded=0;" vertex="1" parent="1">
          <mxGeometry x="130" y="240" width="50" height="20" as="geometry" />
        </mxCell>
        <mxCell id="HcjrHbSl4ccHJXMgmdFX-21" value="#0" style="text;html=1;strokeColor=none;fillColor=none;align=center;verticalAlign=middle;whiteSpace=wrap;rounded=0;" vertex="1" parent="1">
          <mxGeometry x="240" y="270" width="50" height="20" as="geometry" />
        </mxCell>
        <mxCell id="HcjrHbSl4ccHJXMgmdFX-22" value="#0" style="text;html=1;strokeColor=none;fillColor=none;align=center;verticalAlign=middle;whiteSpace=wrap;rounded=0;" vertex="1" parent="1">
          <mxGeometry x="370" y="300" width="50" height="20" as="geometry" />
        </mxCell>
        <mxCell id="HcjrHbSl4ccHJXMgmdFX-23" value="#0" style="text;html=1;strokeColor=none;fillColor=none;align=center;verticalAlign=middle;whiteSpace=wrap;rounded=0;" vertex="1" parent="1">
          <mxGeometry x="490" y="330" width="50" height="20" as="geometry" />
        </mxCell>
        <mxCell id="HcjrHbSl4ccHJXMgmdFX-24" value="#0" style="text;html=1;strokeColor=none;fillColor=none;align=center;verticalAlign=middle;whiteSpace=wrap;rounded=0;" vertex="1" parent="1">
          <mxGeometry x="610" y="360" width="50" height="20" as="geometry" />
        </mxCell>
        <mxCell id="HcjrHbSl4ccHJXMgmdFX-25" value="0" style="text;html=1;strokeColor=none;fillColor=none;align=center;verticalAlign=middle;whiteSpace=wrap;rounded=0;" vertex="1" parent="1">
          <mxGeometry x="650" y="120" width="50" height="20" as="geometry" />
        </mxCell>
      </root>
    </mxGraphModel>
  </diagram>
</mxfile>
